<svg xmlns="https://www.w3.org/2000/svg" width="18" height="22" viewBox="0 0 18 22"><path d="M12.977.907c-1.002.113-2.42.98-3.124 1.909-.406.531-.644 1.039-.851 1.802L8.898 5l.005.406c.005.222.018.43.03.464.032.08.093.092.527.094.359.003.381 0 .689-.09.822-.233 1.425-.586 1.853-1.086.104-.124.259-.288.34-.37.27-.261.618-.841.81-1.344.192-.505.278-.974.303-1.64l.014-.428-.064-.063c-.07-.07-.11-.073-.428-.036z"></path><path d="M12.748 5.902c-.487.024-1.8.381-2.742.744-.571.22-.571.22-.684.239-.197.031-.68-.106-1.51-.435-.44-.172-.893-.302-1.562-.452-.28-.06-.746-.067-.948-.012a8.16 8.16 0 0 1-.569.111c-.497.087-.777.172-1.152.353-1.13.541-1.9 1.32-2.51 2.537a8.185 8.185 0 0 0-.618 1.62c-.22.827-.224 2.417-.01 3.381.025.119.047.259.047.315 0 .116.022.203.229 1.002.192.74.172.68.539 1.583.514 1.269.677 1.55 1.728 2.973.43.582.65.848.967 1.164.332.334.6.527.98.71.428.206.615.252 1.01.25.504 0 .91-.102 1.683-.42.487-.201.52-.211 1.405-.39.266-.056.512-.05.886.01l.424.063c.21.029.42.096.967.311.66.261 1.125.377 1.613.406.708.044 1.393-.266 2.124-.954.746-.708 1.442-1.677 2.146-2.985.19-.352.493-1.075.544-1.292.022-.087.06-.196.086-.24a.356.356 0 0 0 .047-.13c0-.087-.18-.225-.497-.382a4.417 4.417 0 0 1-1.583-1.401c-.283-.419-.568-1.044-.64-1.414-.12-.61-.155-1.276-.086-1.74.017-.12.079-.375.138-.568.253-.838.428-1.174.825-1.59a2.25 2.25 0 0 0 .219-.246c0-.041.603-.537.75-.617.082-.046.185-.116.23-.16.135-.13.115-.18-.225-.572a5.205 5.205 0 0 0-1.703-1.276c-.421-.2-.711-.3-1.118-.381a6.439 6.439 0 0 0-1.43-.116z"></path></svg>