<svg xmlns="https://www.w3.org/2000/svg" width="10" height="20" viewBox="0 0 10 20"><path fill="#3B5998" d="M.36 10.652h2.152v9.025c0 .179.141.323.316.323h3.647a.32.32 0 0 0 .316-.323v-8.982h2.473c.16 0 .296-.123.314-.286l.375-3.323a.326.326 0 0 0-.078-.251.31.31 0 0 0-.236-.108H6.791V4.644c0-.628.332-.947.986-.947H9.64a.32.32 0 0 0 .317-.322V.325A.32.32 0 0 0 9.64.002H7.073C7.055.002 7.015 0 6.955 0 6.51 0 4.963.09 3.74 1.236 2.385 2.506 2.574 4.027 2.619 4.29v2.436H.36a.32.32 0 0 0-.317.322v3.28a.32.32 0 0 0 .317.323z"></path></svg>